{"title":"The Company You Keep 2012 DVDRip XviD AC3 -TODE","uid":8372583,"size":737177373,"categoryP":"video","categoryS":"movies","magnet":"?xt=urn:btih:fb844384eb6da5f14005150f0623935e5f6aee94&amp;dn=The+Company+You+Keep+2012+DVDRip+XviD+AC3+-TODE&amp;tr=udp%3A%2F%2Ftracker.openbittorrent.com%3A80&amp;tr=udp%3A%2F%2Fopen.demonii.com%3A1337&amp;tr=udp%3A%2F%2Ftracker.coppersurfer.tk%3A6969&amp;tr=udp%3A%2F%2Fexodus.desync.com%3A6969","seeders":2,"leechers":0,"uploader":"xxxlavalxxx","files":-1,"time":1365958652,"description":"[img]http://www.shotpix.com/images/79148785371493102097.jpg[/img]\n\n &lt;a href=&quot;\nhttp://www.imdb.com/title/tt1381404/&quot; rel=&quot;nofollow&quot; target=&quot;_NEW&quot;&gt;\nhttp://www.imdb.com/title/tt1381404/&lt;/a&gt;\n\n\nPlot: A thriller centered on a former Weather Underground activist who goes on the run from a journalist who has discovered his identity. \n\n\n\nDirector:\n Robert Redford \n\nWriters:\n Lem Dobbs (screenplay), Neil Gordon (based on the novel by) \n\nStars:\n Robert Redford, Nick Nolte, Stanley Tucci\n\nGenres:\n  Thriller \n\nCountry:\n USA \n\nLanguage:\n English \n\n\nThanks: CM8\n\n\nFormat                                   : AVI\nFormat/Info                              : Audio Video Interleave\nFile size                                : 703 MiB\nDuration                                 : 1h 57mn\nOverall bit rate                         : 839 Kbps\nWriting application                      : Lavf54.59.103\n\nVideo\nID                                       : 0\nFormat                                   : MPEG-4 Visual\nFormat profile                           : Simple@L3\nFormat settings, BVOP                    : No\nFormat settings, QPel                    : No\nFormat settings, GMC                     : No warppoints\nFormat settings, Matrix                  : Default (H.263)\nCodec ID                                 : XVID\nCodec ID/Hint                            : XviD\nDuration                                 : 1h 57mn\nBit rate                                 : 700 Kbps\nWidth                                    : 640 pixels\nHeight                                   : 272 pixels\nDisplay aspect ratio                     : 2.35:1\nFrame rate                               : 25.000 fps\nColor space                              : YUV\nChroma subsampling                       : 4:2:0\nBit depth                                : 8 bits\nScan type                                : Progressive\nCompression mode                         : Lossy\nBits/(Pixel*Frame)                       : 0.161\nStream size                              : 587 MiB (83%)\nWriting library                          : XviD 64\n\nAudio\nID                                       : 1\nFormat                                   : AC-3\nFormat/Info                              : Audio Coding 3\nMode extension                           : CM (complete main)\nFormat settings, Endianness              : Big\nCodec ID                                 : 2000\nDuration                                 : 1h 57mn\nBit rate mode                            : Constant\nBit rate                                 : 128 Kbps\nChannel(s)                               : 2 channels\nChannel positions                        : Front: L R\nSampling rate                            : 48.0 KHz\nBit depth                                : 16 bits\nCompression mode                         : Lossy\nStream size                              : 107 MiB (15%)\nAlignment                                : Aligned on interleaves\nInterleave, duration                     : 32 ms (0.80 video frame)\n\n\n\n &lt;a href=&quot;\nhttp://www.shotpix.com/images/03310082517275980786.png&quot; rel=&quot;nofollow&quot; target=&quot;_NEW&quot;&gt;\nhttp://www.shotpix.com/images/03310082517275980786.png&lt;/a&gt; &lt;a href=&quot;\nhttp://www.shotpix.com/images/98492426064916254658.png&quot; rel=&quot;nofollow&quot; target=&quot;_NEW&quot;&gt;\nhttp://www.shotpix.com/images/98492426064916254658.png&lt;/a&gt; &lt;a href=&quot;\nhttp://www.shotpix.com/images/42124478653881666209.png&quot; rel=&quot;nofollow&quot; target=&quot;_NEW&quot;&gt;\nhttp://www.shotpix.com/images/42124478653881666209.png&lt;/a&gt; &lt;a href=&quot;\nhttp://www.shotpix.com/images/46451822342924122731.png&quot; rel=&quot;nofollow&quot; target=&quot;_NEW&quot;&gt;\nhttp://www.shotpix.com/images/46451822342924122731.png&lt;/a&gt; &lt;a href=&quot;\nhttp://www.shotpix.com/images/36013212332818263220.png&quot; rel=&quot;nofollow&quot; target=&quot;_NEW&quot;&gt;\nhttp://www.shotpix.com/images/36013212332818263220.png&lt;/a&gt;","torrent":{"xt":"urn:btih:fb844384eb6da5f14005150f0623935e5f6aee94","amp;dn":"The+Company+You+Keep+2012+DVDRip+XviD+AC3+-TODE","amp;tr":["udp%3A%2F%2Ftracker.openbittorrent.com%3A80","udp%3A%2F%2Fopen.demonii.com%3A1337","udp%3A%2F%2Ftracker.coppersurfer.tk%3A6969","udp%3A%2F%2Fexodus.desync.com%3A6969"],"infoHash":"fb844384eb6da5f14005150f0623935e5f6aee94","infoHashBuffer":{"type":"Buffer","data":[251,132,67,132,235,109,165,241,64,5,21,15,6,35,147,94,95,106,238,148]},"announce":[],"urlList":[]}}